<svg xmlns="http://www.w3.org/2000/svg" xmlns:xlink="http://www.w3.org/1999/xlink" width="214" height="74" viewBox="0 0 214 74"><defs><style>.a{stroke:#fff;stroke-width:2px;fill:url(#a);}.b,.d{fill:#fff;}.b{font-size:20px;font-family:UniviaPro-Black, Univia Pro;font-weight:800;}.c{font-family:SegoeUIBlack, Segoe UI;font-weight:400;}.e{fill:#2a6bc1;stroke:rgba(0,0,0,0);stroke-miterlimit:10;}.f{stroke:none;}.g{fill:none;}.h{filter:url(#h);}.i{filter:url(#f);}.j{filter:url(#d);}.k{filter:url(#b);}</style><linearGradient id="a" x1="0.5" x2="0.5" y2="1" gradientUnits="objectBoundingBox"><stop offset="0" stop-color="#2a6bc1"/><stop offset="1" stop-color="#0b2c6a"/></linearGradient><filter id="b" x="0" y="0" width="214" height="74" filterUnits="userSpaceOnUse"><feOffset dx="2" dy="12" input="SourceAlpha"/><feGaussianBlur stdDeviation="4" result="c"/><feFlood flood-color="#292929"/><feComposite operator="in" in2="c"/><feComposite in="SourceGraphic"/></filter><filter id="d" x="71.917" y="9.777" width="111" height="30" filterUnits="userSpaceOnUse"><feOffset dy="0.5" input="SourceAlpha"/><feGaussianBlur stdDeviation="0.5" result="e"/><feFlood flood-color="#292929" flood-opacity="0.6"/><feComposite operator="in" in2="e"/><feComposite in="SourceGraphic"/></filter><filter id="f" x="28.5" y="9" width="32" height="32" filterUnits="userSpaceOnUse"><feOffset dy="0.5" input="SourceAlpha"/><feGaussianBlur stdDeviation="0.5" result="g"/><feFlood flood-color="#292929" flood-opacity="0.6"/><feComposite operator="in" in2="g"/><feComposite in="SourceGraphic"/></filter><filter id="h" x="36.305" y="15.105" width="15.535" height="19.678" filterUnits="userSpaceOnUse"><feOffset dy="0.5" input="SourceAlpha"/><feGaussianBlur stdDeviation="0.25" result="i"/><feFlood flood-color="#292929" flood-opacity="0.6"/><feComposite operator="in" in2="i"/><feComposite in="SourceGraphic"/></filter></defs><g transform="translate(-73.417 -519)"><g class="k" transform="matrix(1, 0, 0, 1, 73.42, 519)"><g class="a" transform="translate(10)"><rect class="f" width="190" height="50" rx="10"/><rect class="g" x="1" y="1" width="188" height="48" rx="9"/></g></g><g class="j" transform="matrix(1, 0, 0, 1, 73.42, 519)"><text class="b" transform="translate(73.42 32.78)"><tspan x="0" y="0">Про Серв</tspan><tspan class="c" y="0">і</tspan><tspan y="0">с</tspan></text></g><g transform="translate(4)"><g class="i" transform="matrix(1, 0, 0, 1, 69.42, 519)"><ellipse class="d" cx="14.5" cy="14.5" rx="14.5" ry="14.5" transform="translate(30 10)"/></g><g class="h" transform="matrix(1, 0, 0, 1, 69.42, 519)"><path class="e" d="M4.81,15.475a1.763,1.763,0,1,1,1.763,1.7A1.734,1.734,0,0,1,4.81,15.475ZM4.888,12.6c0-2.681,1.019-3.827,3.345-4.951C9.572,7,9.776,6.768,9.776,5.512c0-1.487-1.179-2.362-3.258-2.362A3.2,3.2,0,0,0,3.258,6.3H0A6.412,6.412,0,0,1,6.518,0c3.721,0,6.517,2.08,6.517,5.512,0,2.681-1.019,3.827-3.345,4.951-1.339.647-1.543.879-1.543,2.136Z" transform="translate(37.56 15.86)"/></g></g></g></svg>