<svg xmlns="http://www.w3.org/2000/svg" xmlns:xlink="http://www.w3.org/1999/xlink" width="214" height="74" viewBox="0 0 214 74"><defs><style>.a{stroke:#fff;stroke-width:2px;fill:url(#a);}.b,.c{fill:#fff;}.b{font-size:20px;font-family:UniviaPro-Black, Univia Pro;font-weight:800;}.d{fill:#f93a55;}.e{stroke:none;}.f{fill:none;}.g{filter:url(#h);}.h{filter:url(#f);}.i{filter:url(#d);}.j{filter:url(#b);}</style><linearGradient id="a" x1="0.5" x2="0.5" y2="1" gradientUnits="objectBoundingBox"><stop offset="0" stop-color="#f93a55"/><stop offset="0" stop-color="#fb8596"/><stop offset="1" stop-color="#f93a55"/></linearGradient><filter id="b" x="0" y="0" width="214" height="74" filterUnits="userSpaceOnUse"><feOffset dx="2" dy="12" input="SourceAlpha"/><feGaussianBlur stdDeviation="4" result="c"/><feFlood flood-color="#292929"/><feComposite operator="in" in2="c"/><feComposite in="SourceGraphic"/></filter><filter id="d" x="76.767" y="12.704" width="105" height="27" filterUnits="userSpaceOnUse"><feOffset dy="0.5" input="SourceAlpha"/><feGaussianBlur stdDeviation="0.5" result="e"/><feFlood flood-color="#292929" flood-opacity="0.6"/><feComposite operator="in" in2="e"/><feComposite in="SourceGraphic"/></filter><filter id="f" x="28.5" y="10" width="32" height="32" filterUnits="userSpaceOnUse"><feOffset dy="0.5" input="SourceAlpha"/><feGaussianBlur stdDeviation="0.5" result="g"/><feFlood flood-color="#292929" flood-opacity="0.6"/><feComposite operator="in" in2="g"/><feComposite in="SourceGraphic"/></filter><filter id="h" x="35.479" y="16.55" width="19.286" height="19.222" filterUnits="userSpaceOnUse"><feOffset dy="0.5" input="SourceAlpha"/><feGaussianBlur stdDeviation="0.25" result="i"/><feFlood flood-color="#292929" flood-opacity="0.6"/><feComposite operator="in" in2="i"/><feComposite in="SourceGraphic"/></filter></defs><g transform="translate(-65 -431)"><g class="j" transform="matrix(1, 0, 0, 1, 65, 431)"><g class="a" transform="translate(10)"><rect class="e" width="190" height="50" rx="10"/><rect class="f" x="1" y="1" width="188" height="48" rx="9"/></g></g><g class="i" transform="matrix(1, 0, 0, 1, 65, 431)"><text class="b" transform="translate(78.27 33.7)"><tspan x="0" y="0">МАГАЗИН</tspan></text></g><g transform="translate(6)"><g class="h" transform="matrix(1, 0, 0, 1, 59, 431)"><ellipse class="c" cx="14.5" cy="14.5" rx="14.5" ry="14.5" transform="translate(30 11)"/></g><g class="g" transform="matrix(1, 0, 0, 1, 59, 431)"><path class="d" d="M5.154,3.826a1.961,1.961,0,0,1,.453-.051l12.379.884c1.109.02,2.194.939,1.659,2.134-.1.233-.575,1.18-1.324,2.671-.306.609-.62,1.232-.933,1.854l-.3.6-.093.185a2.326,2.326,0,0,1-1.464,1.374l-.131.041H4.7a.974.974,0,0,0-.93.887l0,.833a.994.994,0,0,0,.888.939H4.81a2.659,2.659,0,0,1,5.014,0H11.9a2.658,2.658,0,1,1,0,1.772H9.824a2.659,2.659,0,0,1-5.015,0h-.2A2.785,2.785,0,0,1,2,15.292v-.93a2.762,2.762,0,0,1,2.648-2.614L3.781,5.67l-.009-.125a2.507,2.507,0,0,0-.627-1.589A2.225,2.225,0,0,0,2,3.772V2a3.271,3.271,0,0,1,2.4.7A3.849,3.849,0,0,1,5.154,3.826Zm1.376,7.921h8.557a.554.554,0,0,0,.256-.3l.043-.1.115-.227.3-.6c.313-.621.627-1.243.919-1.826l.013-.026c.512-1.02.9-1.8,1.119-2.243l-12.3-.881.868,6.078A.151.151,0,0,0,6.531,11.747Zm7.875,6.2a.886.886,0,1,0-.886-.886A.886.886,0,0,0,14.406,17.95Zm-7.089,0a.886.886,0,1,0-.886-.886A.886.886,0,0,0,7.317,17.95Z" transform="translate(34.23 14.8)"/></g></g></g></svg>