<svg xmlns="http://www.w3.org/2000/svg" xmlns:xlink="http://www.w3.org/1999/xlink" width="354.656" height="75" viewBox="0 0 354.656 75"><defs><style>.a{fill:#fff;}.b{fill:#fff435;}.c{filter:url(#ak);}.d{filter:url(#ai);}.e{filter:url(#ag);}.f{filter:url(#ae);}.g{filter:url(#ac);}.h{filter:url(#aa);}.i{filter:url(#y);}.j{filter:url(#w);}.k{filter:url(#u);}.l{filter:url(#s);}.m{filter:url(#q);}.n{filter:url(#o);}.o{filter:url(#m);}.p{filter:url(#k);}.q{filter:url(#i);}.r{filter:url(#g);}.s{filter:url(#e);}.t{filter:url(#c);}.u{filter:url(#a);}</style><filter id="a" x="63.555" y="0.211" width="36.777" height="40.044" filterUnits="userSpaceOnUse"><feOffset dy="3" input="SourceAlpha"/><feGaussianBlur stdDeviation="2" result="b"/><feFlood flood-color="#292929"/><feComposite operator="in" in2="b"/><feComposite in="SourceGraphic"/></filter><filter id="c" x="88.663" y="0.211" width="48.262" height="40.044" filterUnits="userSpaceOnUse"><feOffset dy="3" input="SourceAlpha"/><feGaussianBlur stdDeviation="2" result="d"/><feFlood flood-color="#292929"/><feComposite operator="in" in2="d"/><feComposite in="SourceGraphic"/></filter><filter id="e" x="125.725" y="0" width="34.669" height="40.255" filterUnits="userSpaceOnUse"><feOffset dy="3" input="SourceAlpha"/><feGaussianBlur stdDeviation="2" result="f"/><feFlood flood-color="#292929"/><feComposite operator="in" in2="f"/><feComposite in="SourceGraphic"/></filter><filter id="g" x="149.188" y="0.211" width="34.957" height="39.868" filterUnits="userSpaceOnUse"><feOffset dy="3" input="SourceAlpha"/><feGaussianBlur stdDeviation="2" result="h"/><feFlood flood-color="#292929"/><feComposite operator="in" in2="h"/><feComposite in="SourceGraphic"/></filter><filter id="i" x="170.508" y="0" width="36.936" height="40.079" filterUnits="userSpaceOnUse"><feOffset dy="3" input="SourceAlpha"/><feGaussianBlur stdDeviation="2" result="j"/><feFlood flood-color="#292929"/><feComposite operator="in" in2="j"/><feComposite in="SourceGraphic"/></filter><filter id="k" x="195.224" y="0.211" width="48.262" height="40.044" filterUnits="userSpaceOnUse"><feOffset dy="3" input="SourceAlpha"/><feGaussianBlur stdDeviation="2" result="l"/><feFlood flood-color="#292929"/><feComposite operator="in" in2="l"/><feComposite in="SourceGraphic"/></filter><filter id="m" x="231.486" y="0.211" width="40.138" height="39.868" filterUnits="userSpaceOnUse"><feOffset dy="3" input="SourceAlpha"/><feGaussianBlur stdDeviation="2" result="n"/><feFlood flood-color="#292929"/><feComposite operator="in" in2="n"/><feComposite in="SourceGraphic"/></filter><filter id="o" x="106.743" y="34.961" width="36.772" height="40.038" filterUnits="userSpaceOnUse"><feOffset dy="3" input="SourceAlpha"/><feGaussianBlur stdDeviation="2" result="p"/><feFlood flood-color="#292929"/><feComposite operator="in" in2="p"/><feComposite in="SourceGraphic"/></filter><filter id="q" x="131.844" y="34.961" width="48.255" height="40.038" filterUnits="userSpaceOnUse"><feOffset dy="3" input="SourceAlpha"/><feGaussianBlur stdDeviation="2" result="r"/><feFlood flood-color="#292929"/><feComposite operator="in" in2="r"/><feComposite in="SourceGraphic"/></filter><filter id="s" x="168.9" y="34.751" width="34.665" height="40.249" filterUnits="userSpaceOnUse"><feOffset dy="3" input="SourceAlpha"/><feGaussianBlur stdDeviation="2" result="t"/><feFlood flood-color="#292929"/><feComposite operator="in" in2="t"/><feComposite in="SourceGraphic"/></filter><filter id="u" x="192.359" y="34.961" width="34.953" height="39.862" filterUnits="userSpaceOnUse"><feOffset dy="3" input="SourceAlpha"/><feGaussianBlur stdDeviation="2" result="v"/><feFlood flood-color="#292929"/><feComposite operator="in" in2="v"/><feComposite in="SourceGraphic"/></filter><filter id="w" x="213.674" y="34.751" width="36.931" height="40.073" filterUnits="userSpaceOnUse"><feOffset dy="3" input="SourceAlpha"/><feGaussianBlur stdDeviation="2" result="x"/><feFlood flood-color="#292929"/><feComposite operator="in" in2="x"/><feComposite in="SourceGraphic"/></filter><filter id="y" x="239.082" y="34.751" width="37.142" height="40.249" filterUnits="userSpaceOnUse"><feOffset dy="3" input="SourceAlpha"/><feGaussianBlur stdDeviation="2" result="z"/><feFlood flood-color="#292929"/><feComposite operator="in" in2="z"/><feComposite in="SourceGraphic"/></filter><filter id="aa" x="263.894" y="34.927" width="47.223" height="39.897" filterUnits="userSpaceOnUse"><feOffset dy="3" input="SourceAlpha"/><feGaussianBlur stdDeviation="2" result="ab"/><feFlood flood-color="#292929"/><feComposite operator="in" in2="ab"/><feComposite in="SourceGraphic"/></filter><filter id="ac" x="300.402" y="34.961" width="37.394" height="40.038" filterUnits="userSpaceOnUse"><feOffset dy="3" input="SourceAlpha"/><feGaussianBlur stdDeviation="2" result="ad"/><feFlood flood-color="#292929"/><feComposite operator="in" in2="ad"/><feComposite in="SourceGraphic"/></filter><filter id="ae" x="58.01" y="34.961" width="60.637" height="39.862" filterUnits="userSpaceOnUse"><feOffset dy="3" input="SourceAlpha"/><feGaussianBlur stdDeviation="2" result="af"/><feFlood flood-color="#292929"/><feComposite operator="in" in2="af"/><feComposite in="SourceGraphic"/></filter><filter id="ag" x="259.359" y="0.393" width="95.297" height="39.862" filterUnits="userSpaceOnUse"><feOffset dy="3" input="SourceAlpha"/><feGaussianBlur stdDeviation="2" result="ah"/><feFlood flood-color="#292929"/><feComposite operator="in" in2="ah"/><feComposite in="SourceGraphic"/></filter><filter id="ai" x="244.379" y="0.211" width="17.72" height="18.515" filterUnits="userSpaceOnUse"><feOffset dy="3" input="SourceAlpha"/><feGaussianBlur stdDeviation="2" result="aj"/><feFlood flood-color="#292929"/><feComposite operator="in" in2="aj"/><feComposite in="SourceGraphic"/></filter><filter id="ak" x="0" y="0" width="74.703" height="74.824" filterUnits="userSpaceOnUse"><feOffset dy="3" input="SourceAlpha"/><feGaussianBlur stdDeviation="2" result="al"/><feFlood flood-color="#292929"/><feComposite operator="in" in2="al"/><feComposite in="SourceGraphic"/></filter></defs><g transform="translate(-517.911 -154.016)"><g transform="translate(-0.003)"><g class="u" transform="matrix(1, 0, 0, 1, 517.91, 154.02)"><path class="a" d="M596.076,157.2c.387,0,.529.176.493.529l-.845,5.391a.6.6,0,0,1-.67.529H582.476l-.6,3.77h4.3c3.769,0,6.342.6,7.68,1.761,1.375,1.164,1.832,3.136,1.375,5.955l-.387,2.4c-.459,2.818-1.516,4.826-3.242,5.989s-4.474,1.726-8.244,1.726c-3.945,0-7.645-.176-11.1-.493-.318-.036-.494-.176-.458-.458l4.228-26.565a.549.549,0,0,1,.633-.529Zm-15.185,16.418-.811,5.179h3.489c2.641,0,3.664-.669,3.98-2.535v-.107c.283-1.867-.529-2.537-3.171-2.537Z" transform="translate(-502.24 -153.99)"/></g><g class="t" transform="matrix(1, 0, 0, 1, 517.91, 154.02)"><path class="a" d="M604.644,157.2c.318,0,.494.176.458.529l-1.55,9.69h4.3c3.769,0,6.341.6,7.68,1.761,1.374,1.164,1.832,3.136,1.374,5.955l-.387,2.4c-.458,2.818-1.515,4.826-3.242,5.989s-4.474,1.726-8.244,1.726c-3.945,0-7.645-.176-11.1-.493-.316-.036-.493-.176-.457-.458l4.227-26.565a.52.52,0,0,1,.6-.529Zm-2.078,16.418-.81,5.179h3.488c2.641,0,3.665-.669,3.981-2.535v-.107c.282-1.867-.529-2.537-3.171-2.537ZM629.271,157.2c.352,0,.493.212.458.6L625.5,184.468c-.07.387-.281.6-.633.6h-6.342c-.352,0-.494-.211-.423-.6l4.228-26.671a.572.572,0,0,1,.6-.6Z" transform="translate(-498.81 -153.99)"/></g><g class="s" transform="matrix(1, 0, 0, 1, 517.91, 154.02)"><path class="a" d="M647.263,157.755c.7.247.95.494.845,1.2l-.634,3.947a.593.593,0,0,1-.635.563h-7.785a4.248,4.248,0,0,0-3.769,1.586c-.741,1.057-1.34,3.066-1.8,6.061-.529,2.888-.563,4.9-.176,6.025.423,1.128,1.515,1.69,3.311,1.69h7.786c.352,0,.494.176.458.564l-.634,3.945a1.35,1.35,0,0,1-1.2,1.2,29.7,29.7,0,0,1-7.434.738c-4.65,0-7.645-.986-8.949-2.959s-1.55-5.707-.669-11.2c.881-5.638,1.973-8.878,4.192-11.1,2.22-2.254,5.109-2.994,9.9-2.994A28.137,28.137,0,0,1,647.263,157.755Z" transform="translate(-493.74 -154.02)"/></g><g class="r" transform="matrix(1, 0, 0, 1, 517.91, 154.02)"><path class="a" d="M668.177,157.2c.352,0,.529.176.493.529l-.845,5.391a.6.6,0,0,1-.669.529h-6.8L657.079,184.5a.593.593,0,0,1-.635.562H650.1c-.352,0-.493-.176-.423-.562l3.277-20.858h-6.764c-.387,0-.529-.176-.458-.529l.845-5.391a.551.551,0,0,1,.635-.529Z" transform="translate(-490.53 -153.99)"/></g><g class="q" transform="matrix(1, 0, 0, 1, 517.91, 154.02)"><path class="a" d="M687.693,159.165c1.3,1.444,1.655,3.876,1.128,7.329-.529,3.417-1.656,5.742-3.311,6.975s-4.37,1.832-8.209,1.832H673l-1.444,9.232c-.105.457-.211.562-.634.562h-6.342c-.422,0-.529-.105-.422-.562l4.192-26.565c.035-.283.211-.423.6-.459,3.558-.316,7.293-.493,11.238-.493C683.924,157.016,686.426,157.721,687.693,159.165Zm-12.825,4.3-1.021,6.412h3.487c2.643,0,3.558-.774,3.947-3.134s-.352-3.278-2.924-3.278Z" transform="translate(-487.61 -154.02)"/></g><g class="p" transform="matrix(1, 0, 0, 1, 517.91, 154.02)"><path class="a" d="M696.632,157.2c.318,0,.494.176.458.529l-1.55,9.69h4.3c3.769,0,6.341.6,7.68,1.761,1.373,1.164,1.831,3.136,1.373,5.955l-.387,2.4c-.458,2.818-1.515,4.826-3.242,5.989s-4.474,1.726-8.244,1.726c-3.945,0-7.645-.176-11.1-.493-.316-.036-.493-.176-.457-.458l4.227-26.565a.52.52,0,0,1,.6-.529Zm-2.078,16.418-.81,5.179h3.488c2.641,0,3.665-.669,3.981-2.535v-.107c.282-1.867-.529-2.537-3.171-2.537ZM721.259,157.2c.352,0,.493.212.458.6l-4.228,26.671c-.071.387-.281.6-.633.6h-6.342c-.352,0-.494-.211-.423-.6l4.228-26.671a.572.572,0,0,1,.6-.6Z" transform="translate(-484.24 -153.99)"/></g><g class="o" transform="matrix(1, 0, 0, 1, 517.91, 154.02)"><path class="a" d="M744.433,157.2c.354,0,.494.212.459.6l-4.228,26.671c-.071.387-.282.6-.634.6h-6.342c-.352,0-.493-.211-.422-.6l2.149-13.635-11.45,13.106a3.18,3.18,0,0,1-2.432,1.127H717.2c-.352,0-.493-.211-.422-.6L721,157.8a.574.574,0,0,1,.6-.6h6.342c.352,0,.493.212.458.6l-2.149,13.388,11.1-12.683a4.209,4.209,0,0,1,1.232-1.092,3.328,3.328,0,0,1,1.34-.212Z" transform="translate(-479.27 -153.99)"/></g><g class="n" transform="matrix(1, 0, 0, 1, 517.91, 154.02)"><path class="a" d="M633.352,187.206c.387,0,.529.176.493.529l-.845,5.39a.6.6,0,0,1-.67.529H619.754l-.6,3.769h4.3c3.768,0,6.34.6,7.679,1.761,1.373,1.163,1.831,3.135,1.373,5.954l-.387,2.395c-.458,2.818-1.515,4.825-3.241,5.988s-4.474,1.726-8.243,1.726c-3.944,0-7.644-.176-11.1-.493-.316-.036-.493-.176-.458-.458l4.227-26.559a.55.55,0,0,1,.634-.529ZM618.17,203.62l-.81,5.179h3.488c2.641,0,3.664-.67,3.98-2.536v-.105c.282-1.868-.529-2.537-3.171-2.537Z" transform="translate(-496.33 -149.24)"/></g><g class="m" transform="matrix(1, 0, 0, 1, 517.91, 154.02)"><path class="a" d="M641.919,187.206c.316,0,.493.176.457.529l-1.55,9.687h4.3c3.769,0,6.341.6,7.679,1.761,1.373,1.163,1.831,3.135,1.373,5.954l-.387,2.395c-.458,2.818-1.515,4.825-3.241,5.988s-4.473,1.726-8.243,1.726c-3.944,0-7.644-.176-11.1-.493-.316-.036-.493-.176-.457-.458l4.226-26.559a.52.52,0,0,1,.6-.529Zm-2.079,16.414-.81,5.179h3.488c2.641,0,3.664-.67,3.98-2.536v-.105c.283-1.868-.529-2.537-3.17-2.537Zm26.7-16.414c.352,0,.493.211.458.6l-4.227,26.666c-.071.387-.282.6-.634.6H655.8c-.352,0-.494-.211-.423-.6L659.6,187.8a.571.571,0,0,1,.6-.6Z" transform="translate(-492.9 -149.24)"/></g><g class="l" transform="matrix(1, 0, 0, 1, 517.91, 154.02)"><path class="a" d="M684.529,187.763c.7.246.95.494.845,1.2l-.634,3.945a.593.593,0,0,1-.635.563H676.32a4.246,4.246,0,0,0-3.768,1.586c-.741,1.057-1.34,3.064-1.8,6.058-.529,2.888-.563,4.9-.176,6.024.424,1.128,1.515,1.691,3.311,1.691h7.784c.352,0,.494.176.459.563l-.635,3.945a1.347,1.347,0,0,1-1.2,1.2,29.617,29.617,0,0,1-7.432.739c-4.649,0-7.644-.986-8.948-2.959s-1.55-5.706-.669-11.2c.881-5.636,1.973-8.876,4.192-11.1,2.218-2.254,5.108-2.994,9.9-2.994A28.075,28.075,0,0,1,684.529,187.763Z" transform="translate(-487.83 -149.27)"/></g><g class="k" transform="matrix(1, 0, 0, 1, 517.91, 154.02)"><path class="a" d="M705.438,187.206c.352,0,.529.176.493.529l-.845,5.39a.6.6,0,0,1-.669.529h-6.8L694.343,214.5a.593.593,0,0,1-.635.563h-6.34c-.352,0-.493-.176-.423-.563l3.275-20.852h-6.763c-.387,0-.529-.176-.457-.529l.845-5.39a.55.55,0,0,1,.634-.529Z" transform="translate(-484.62 -149.24)"/></g><g class="j" transform="matrix(1, 0, 0, 1, 517.91, 154.02)"><path class="a" d="M724.952,189.173c1.3,1.443,1.654,3.873,1.127,7.325-.529,3.418-1.655,5.742-3.311,6.975s-4.368,1.832-8.208,1.832h-4.3l-1.444,9.228c-.105.458-.211.563-.634.563h-6.341c-.422,0-.527-.105-.422-.563l4.192-26.559c.035-.282.211-.422.6-.458,3.558-.316,7.292-.493,11.237-.493C721.182,187.024,723.683,187.729,724.952,189.173Zm-12.824,4.3-1.021,6.412h3.487c2.643,0,3.558-.777,3.945-3.135s-.352-3.277-2.924-3.277Z" transform="translate(-481.71 -149.27)"/></g><g class="i" transform="matrix(1, 0, 0, 1, 517.91, 154.02)"><path class="a" d="M747.178,190.018c1.375,1.972,1.655,5.706.774,11.166-1.937,11.061-4.756,13.878-14.3,14.089-9.37.036-11.517-3.275-9.792-14.089.881-5.6,2.043-8.912,4.3-11.166s5.177-2.994,9.969-2.994C742.811,187.024,745.8,188.009,747.178,190.018Zm-15.886,17.119q.685,1.692,3.381,1.691a4.425,4.425,0,0,0,3.875-1.62q1.215-1.638,1.9-6.024c.493-2.888.493-4.9.036-6.023s-1.586-1.691-3.382-1.691a4.445,4.445,0,0,0-3.875,1.655c-.775,1.093-1.408,3.1-1.867,6.059C730.868,204.037,730.834,206.01,731.293,207.137Z" transform="translate(-478.23 -149.27)"/></g><g class="h" transform="matrix(1, 0, 0, 1, 517.91, 154.02)"><path class="a" d="M779.628,187.176c.248,0,.352.211.352.6l-1.444,26.7a.581.581,0,0,1-.634.6h-6.34c-.318,0-.458-.211-.423-.6l.741-13.985-7.222,13.14a.942.942,0,0,1-.881.6H759.62a.774.774,0,0,1-.74-.6l-2.959-13.14-3.733,13.985c-.107.387-.318.6-.634.6h-6.341c-.387,0-.529-.211-.423-.6l7.01-26.666c.107-.387.247-.6.494-.6H758c1.444,0,2.009.282,2.289,1.444L763.46,203.1l7.749-14.476c.6-1.164,1.268-1.444,2.712-1.444Z" transform="translate(-474.86 -149.25)"/></g><g class="g" transform="matrix(1, 0, 0, 1, 517.91, 154.02)"><path class="a" d="M801.216,187.206c.422,0,.529.211.352.6l-10.18,20.466c-2.325,4.65-5.777,6.974-10.32,6.974a13.377,13.377,0,0,1-3.911-.669c-.7-.246-.986-.634-.881-1.233l.634-3.98a.545.545,0,0,1,.6-.563h2.958c2.009,0,2.855-.494,3.7-1.9l-5.53-19.056c-.107-.423.034-.634.493-.634h7.009a.519.519,0,0,1,.564.387l2.607,9.124,4.509-9.089a.8.8,0,0,1,.669-.422Z" transform="translate(-469.85 -149.24)"/></g><g class="f" transform="matrix(1, 0, 0, 1, 517.91, 154.02)"><path class="a" d="M615.641,188.009,611.5,214.48a.7.7,0,0,1-.687.588h-43.1a.694.694,0,0,1-.686-.8l4.212-26.472a.7.7,0,0,1,.687-.585h43.033A.7.7,0,0,1,615.641,188.009ZM590.6,191.037H575.971c-.281,0-.408.127-.435.409l-3.068,19.408c-.051.282.051.409.307.409h4.6a.429.429,0,0,0,.46-.409l2.378-15.138h4.654l-2.377,15.138c-.052.282.051.409.306.409h4.6a.429.429,0,0,0,.46-.409l3.069-19.408C590.956,191.164,590.829,191.037,590.6,191.037Zm18.207,2.02c-1-1.458-3.17-2.173-6.572-2.173-3.477,0-5.6.537-7.236,2.173s-2.48,4.04-3.12,8.105c-1.253,7.851.307,10.255,7.108,10.229,6.93-.153,8.976-2.2,10.382-10.229C610.007,197.2,609.8,194.488,608.805,193.057Zm-4.884,8.105a10.566,10.566,0,0,1-1.38,4.373,3.213,3.213,0,0,1-2.813,1.176q-1.956,0-2.454-1.227a8.9,8.9,0,0,1,.051-4.322,11.052,11.052,0,0,1,1.355-4.4,3.224,3.224,0,0,1,2.813-1.2q1.956,0,2.455,1.227A9.034,9.034,0,0,1,603.921,201.162Z" transform="translate(-503 -149.24)"/></g><g class="e" transform="matrix(1, 0, 0, 1, 517.91, 154.02)"><path class="b" d="M823.445,157.355H745.752a.7.7,0,0,0-.687.585l-4.212,26.472a.694.694,0,0,0,.686.8h68.739a.693.693,0,0,0,.622-.385l13.168-26.472A.7.7,0,0,0,823.445,157.355Z" transform="translate(-475.49 -153.96)"/></g><g class="d" transform="matrix(1, 0, 0, 1, 517.91, 154.02)"><path class="a" d="M733.6,157.2h-4.636l-1.084,6.515Z" transform="translate(-477.5 -153.99)"/></g></g><g class="c" transform="matrix(1, 0, 0, 1, 517.91, 154.02)"><path class="b" d="M585.045,157.016H523.911V219.84h51.783a1.569,1.569,0,0,0,1.551-1.325l9.35-59.687A1.568,1.568,0,0,0,585.045,157.016Z" transform="translate(-517.91 -154.02)"/></g></g></svg>